<svg xmlns="http://www.w3.org/2000/svg" viewBox="0 0 32 32" fill="none">
  <rect width="32" height="32" rx="6" fill="#0a0a0a"/>
  <path d="
    M 16 2.5
    L 18 2.5 L 18.6 5.2 L 19.8 4.9
    L 22 3.1 L 23.5 3.9 L 22.6 6.7 L 23.7 7.4
    L 26.3 6.3 L 27.4 7.9 L 25.1 9.5 L 25.8 10.8
    L 28.7 10.8 L 29.2 12.7 L 26.5 13.3 L 26.8 14.6
    L 29.5 16 L 29.5 18
    L 26.8 17.4 L 26.8 18.6
    L 29.2 19.8 L 28.7 21.7 L 25.8 21.2 L 25.1 22.5
    L 27.4 24.1 L 26.3 25.7 L 23.7 24.6 L 22.6 25.3
    L 23.5 28.1 L 22 28.9 L 19.8 27.1 L 18.6 26.8
    L 18 29.5 L 16 29.5
    L 14 29.5 L 13.4 26.8 L 12.2 27.1
    L 10 28.9 L 8.5 28.1 L 9.4 25.3 L 8.3 24.6
    L 5.7 25.7 L 4.6 24.1 L 6.9 22.5 L 6.2 21.2
    L 3.3 21.7 L 2.8 19.8 L 5.2 18.6 L 5.2 17.4
    L 2.5 18 L 2.5 16
    L 5.2 14.6 L 5.2 13.3
    L 2.8 12.7 L 3.3 10.8 L 6.2 10.8 L 6.9 9.5
    L 4.6 7.9 L 5.7 6.3 L 8.3 7.4 L 9.4 6.7
    L 8.5 3.9 L 10 3.1 L 12.2 4.9 L 13.4 5.2
    L 14 2.5 Z
  " fill="#730404"/>
  <circle cx="16" cy="16" r="9" fill="#4a0202"/>
  <circle cx="16" cy="16" r="3" fill="#1a0101" stroke="#8b1a1a" stroke-width="0.5"/>
  <!-- Mini circuit traces -->
  <line x1="10" y1="13" x2="13" y2="13" stroke="#b91c1c" stroke-width="0.8" opacity="0.8"/>
  <line x1="19" y1="13" x2="22" y2="13" stroke="#b91c1c" stroke-width="0.8" opacity="0.8"/>
  <line x1="10" y1="19" x2="13" y2="19" stroke="#b91c1c" stroke-width="0.8" opacity="0.8"/>
  <line x1="19" y1="19" x2="22" y2="19" stroke="#b91c1c" stroke-width="0.8" opacity="0.8"/>
  <line x1="13" y1="10" x2="13" y2="13" stroke="#b91c1c" stroke-width="0.8" opacity="0.8"/>
  <line x1="19" y1="10" x2="19" y2="13" stroke="#b91c1c" stroke-width="0.8" opacity="0.8"/>
  <line x1="13" y1="19" x2="13" y2="22" stroke="#b91c1c" stroke-width="0.8" opacity="0.8"/>
  <line x1="19" y1="19" x2="19" y2="22" stroke="#b91c1c" stroke-width="0.8" opacity="0.8"/>
  <circle cx="13" cy="13" r="1" fill="#ef4444" opacity="0.9"/>
  <circle cx="19" cy="13" r="1" fill="#ef4444" opacity="0.9"/>
  <circle cx="13" cy="19" r="1" fill="#ef4444" opacity="0.9"/>
  <circle cx="19" cy="19" r="1" fill="#ef4444" opacity="0.9"/>
  <circle cx="16" cy="16" r="1" fill="#dc2626"/>
</svg>
